<svg width="23" height="24" viewBox="0 0 23 24" fill="none" xmlns="http://www.w3.org/2000/svg">
<path d="M6.08047 14.0811C6.16455 14.1678 6.30287 14.1678 6.38695 14.0811L9.14804 11.2336L11.4833 13.6448C11.5674 13.7315 11.7057 13.7315 11.7898 13.6448L17.9276 7.30911C18.0117 7.2224 18.0117 7.07975 17.9276 6.99303L16.9295 5.96367C16.8887 5.92202 16.8337 5.89866 16.7763 5.89866C16.7189 5.89866 16.6638 5.92202 16.623 5.96367L11.6379 11.1105L9.30264 8.69932C9.26185 8.65767 9.20678 8.63431 9.14939 8.63431C9.092 8.63431 9.03693 8.65767 8.99615 8.69932L5.08235 12.7357C5.04197 12.7777 5.01932 12.8345 5.01932 12.8937C5.01932 12.9529 5.04197 13.0097 5.08235 13.0518L6.08047 14.0811Z" fill="#6362E7"/>
<path d="M22.1321 2.01398H12.4764V0.223775C12.4764 0.100699 12.3788 0 12.2594 0H10.7406C10.6212 0 10.5236 0.100699 10.5236 0.223775V2.01398H0.867925C0.387854 2.01398 0 2.41398 0 2.90908V17.4545C0 17.9496 0.387854 18.3496 0.867925 18.3496H10.5344V19.2447L6.06462 22.2684C6.04086 22.2844 6.02039 22.305 6.00438 22.3291C5.98837 22.3532 5.97715 22.3803 5.97135 22.4089C5.96555 22.4375 5.9653 22.467 5.9706 22.4957C5.9759 22.5244 5.98665 22.5517 6.00224 22.5761L6.82406 23.8964V23.8992C6.88915 24.0027 7.02476 24.0307 7.12512 23.9635L11.5 21.0041L15.8749 23.9635C15.9752 24.0307 16.1109 24.0027 16.1759 23.8992V23.8964L16.9978 22.5761C17.0287 22.5267 17.0395 22.4667 17.0278 22.4091C17.0161 22.3515 16.9829 22.301 16.9354 22.2684L12.4764 19.2531V18.3496H22.1321C22.6121 18.3496 23 17.9496 23 17.4545V2.90908C23 2.41398 22.6121 2.01398 22.1321 2.01398ZM21.0472 16.3356H1.95283V4.02796H21.0472V16.3356Z" fill="#6362E7"/>
</svg>
