<svg width="27" height="27" viewBox="0 0 27 27" fill="none" xmlns="http://www.w3.org/2000/svg">
<path d="M2.64493 23.6922C2.83938 23.8021 3.04228 23.8697 3.24518 23.9374C3.44807 24.005 3.65943 24.0557 3.87078 24.098C4.30194 24.191 4.72464 24.2755 5.14735 24.3516C5.99276 24.5122 6.84662 24.639 7.70049 24.732C8.55435 24.8166 9.40822 24.8589 10.2536 24.8673C11.099 24.8673 11.9529 24.825 12.7899 24.732C13.0012 24.7151 13.2041 24.6813 13.4155 24.656L13.7283 24.6137C13.8297 24.5968 13.9312 24.5799 14.0326 24.563C14.4384 24.4953 14.8358 24.4023 15.2416 24.3009C16.0531 24.098 16.8732 23.8359 17.7101 23.5823L18.9614 23.1934L19.587 22.999C19.7899 22.9313 20.0012 22.8721 20.2041 22.8045C21.0242 22.5424 21.8273 22.2634 22.5797 21.9337C22.9517 21.7731 23.3152 21.5956 23.5858 21.4096C23.721 21.3166 23.814 21.232 23.8563 21.1729C23.8647 21.1644 23.8647 21.156 23.8732 21.1475L23.8986 21.1137C23.9155 21.0883 23.9324 21.0545 23.9493 21.0207C23.9916 20.9615 24.0085 20.8939 24.0423 20.8262C24.1437 20.5642 24.1775 20.2598 24.1606 19.9217C24.1437 19.575 24.0676 19.1946 23.9662 18.7973C23.8647 18.3999 23.7379 17.9941 23.6111 17.5799L23.5097 17.2671L23.4167 16.9712L23.3152 16.6837L23.2053 16.3963C22.901 15.627 22.5374 14.883 22.1063 14.1898C21.878 13.8178 21.6329 13.4374 21.413 13.0569C21.1848 12.6765 20.965 12.2961 20.7452 11.9072C20.3056 11.1378 19.8829 10.3601 19.4771 9.58228C18.657 8.01828 17.8792 6.43736 17.1437 4.83953L17.3128 5.04243C17.1268 4.91562 16.9239 4.78035 16.721 4.64509L16.1208 4.2562C15.9179 4.12939 15.715 3.99412 15.5121 3.86731C15.3092 3.7405 15.1063 3.61369 14.9034 3.48687C14.0833 2.98808 13.2548 2.51465 12.3925 2.10886C11.5302 1.70306 10.651 1.33953 9.74638 1.13663C9.29832 1.02673 8.83334 0.967551 8.38527 0.959097C7.9372 0.959097 7.48914 1.02673 7.08334 1.19581L7.18479 1.11127L5.60387 2.85282C5.47706 3.00499 5.34179 3.14871 5.23189 3.29243C5.11353 3.43615 5.02899 3.57142 5.01208 3.67286C5.00363 3.72359 5.01208 3.79122 5.02054 3.8504C5.02899 3.90958 5.05435 3.9603 5.08817 4.01103C5.12199 4.06175 5.16426 4.12093 5.22344 4.18857C5.28262 4.2562 5.35025 4.34074 5.42634 4.44219C5.46015 4.49291 5.50242 4.56055 5.52778 4.62818C5.54469 4.662 5.55315 4.70427 5.57006 4.73808C5.58696 4.7719 5.58696 4.81417 5.60387 4.85644C5.62923 5.01707 5.62923 5.18615 5.58696 5.32987C5.55315 5.48204 5.48551 5.60886 5.40943 5.72721C5.33334 5.83712 5.2488 5.93857 5.16426 6.01465C5.07972 6.09919 5.00363 6.16683 4.936 6.22601L4.77537 6.37818C4.76692 6.38663 4.75846 6.39509 4.75001 6.39509C4.75001 6.39509 4.74155 6.39509 4.74155 6.40354H4.7331C4.7331 6.40354 4.72464 6.40354 4.72464 6.39509C4.72464 6.38663 4.72464 6.37818 4.71619 6.37818C4.70774 6.35282 4.68237 6.35282 4.69083 6.38663C4.69928 6.42045 4.75001 6.46272 4.80919 6.50499C4.83455 6.5219 4.86836 6.54726 4.90218 6.56417L4.95291 6.58953L4.98672 6.60644L5.00363 6.61489H4.99518C4.99518 6.61489 5.03745 6.62335 5.06281 6.6318C5.09662 6.64026 5.13044 6.64026 5.16426 6.64026C5.24035 6.64026 5.31643 6.64026 5.40097 6.6318C5.5616 6.61489 5.73068 6.57262 5.89977 6.51344C6.06885 6.46272 6.22948 6.37818 6.3901 6.30209L6.45774 6.26828H6.55919C6.64373 6.26828 6.71136 6.26828 6.78745 6.26828C6.86353 6.26828 6.93117 6.27673 6.9988 6.27673C7.14252 6.28518 7.28624 6.30209 7.4215 6.32745C7.70049 6.37818 7.97948 6.47963 8.25001 6.58953L8.44445 6.67407L8.51208 6.70789L8.5459 6.7248L8.58817 6.74171C8.64735 6.75861 8.68962 6.77552 8.7488 6.79243C8.80798 6.80934 8.86716 6.82625 8.92633 6.8347C9.16305 6.88543 9.42513 6.91079 9.67875 6.91924C9.93237 6.9277 10.1945 6.91924 10.4481 6.90233C10.7017 6.88543 10.9638 6.86006 11.2089 6.81779C11.3358 6.80088 11.4541 6.77552 11.5725 6.75016C11.6993 6.7248 11.7669 6.69943 11.8937 6.64871C12.0036 6.60644 12.122 6.55571 12.2403 6.50499C12.3587 6.45427 12.4855 6.40354 12.6377 6.34436C12.7138 6.319 12.7983 6.29364 12.8913 6.27673C12.9928 6.25982 13.1111 6.25137 13.2464 6.26828C13.2802 6.27673 13.314 6.28518 13.3478 6.28518C13.3478 6.28518 13.3732 6.29364 13.3901 6.30209C13.407 6.31055 13.4239 6.319 13.4408 6.32745C13.4746 6.34436 13.5169 6.36972 13.5254 6.36972C13.5507 6.38663 13.5845 6.41199 13.6099 6.4289L13.6691 6.47963C13.7029 6.51344 13.7283 6.53881 13.7621 6.57262L13.8382 6.65716C14.0326 6.87697 14.2017 7.08832 14.3708 7.31658C14.7005 7.7562 14.9964 8.20427 15.2923 8.66924C15.8587 9.59919 16.3744 10.5545 16.721 11.662L16.7548 11.7634L16.7464 11.8987C16.7041 12.3721 16.6534 12.8456 16.6027 13.319C16.5519 13.7924 16.4928 14.2659 16.4336 14.7393C16.3744 15.2127 16.3068 15.6861 16.2645 16.1596C16.2138 16.633 16.18 17.1064 16.1377 17.5799L16.0278 18.9748L15.1486 17.8758C14.506 17.0642 13.6606 16.4047 12.7222 15.9905C11.7923 15.5593 10.7778 15.3564 9.79711 15.2973C8.80798 15.2465 7.8273 15.348 6.88044 15.627C5.93358 15.906 5.02054 16.354 4.14131 16.9204L3.87923 17.0895L3.69324 17.0726L0.818848 16.7852L0.928751 15.6608L3.80315 15.9567L3.35508 16.1089C3.53262 15.8637 3.73551 15.6354 3.95532 15.4241C4.17513 15.2127 4.41184 15.0098 4.65701 14.8323C5.1558 14.4688 5.69687 14.1644 6.2802 13.9361C6.86353 13.7079 7.47223 13.5557 8.09783 13.4796C8.72344 13.412 9.34904 13.412 9.96619 13.4881C11.2005 13.6572 12.3672 14.1221 13.3816 14.7731C14.4046 15.4241 15.2923 16.2526 16.0109 17.1994L15.0302 17.4869C15.0725 17.0134 15.1147 16.5316 15.1486 16.0497C15.1824 15.5678 15.2246 15.0944 15.2669 14.6125C15.3092 14.1306 15.3515 13.6572 15.3937 13.1753C15.4445 12.7018 15.4952 12.22 15.5459 11.7465L15.5628 11.9832C15.436 11.5183 15.2416 11.0533 15.0302 10.5883C14.8188 10.1233 14.5821 9.66683 14.3285 9.21876C14.0749 8.77069 13.8128 8.32262 13.5254 7.89992C13.3816 7.68856 13.2379 7.47721 13.0858 7.29968L13.035 7.2405C13.0181 7.22359 13.0012 7.19823 12.9843 7.18977L12.9674 7.17286C12.9674 7.17286 12.9674 7.17286 12.9759 7.17286C12.9674 7.16441 12.9928 7.18977 13.0181 7.19823C13.0266 7.20668 13.035 7.20668 13.0519 7.20668C13.0604 7.20668 13.0773 7.21514 13.0773 7.21514C13.0773 7.21514 13.0773 7.21514 13.0858 7.21514C13.0858 7.21514 13.0773 7.21514 13.0435 7.21514C13.0097 7.22359 12.9674 7.23204 12.9167 7.2405C12.8152 7.26586 12.6884 7.31658 12.5616 7.35885C12.4348 7.40113 12.2995 7.4434 12.1558 7.48567C12.029 7.51948 11.843 7.56175 11.7077 7.57021C11.564 7.58712 11.4203 7.59557 11.285 7.60402C10.7355 7.62939 10.1945 7.61248 9.64493 7.57866C9.3744 7.56175 9.09542 7.54485 8.81643 7.51948C8.67271 7.50257 8.52899 7.48567 8.37682 7.45185L8.31764 7.4434L8.25846 7.42649L8.1401 7.39267L7.96257 7.33349C7.73431 7.26586 7.49759 7.23204 7.26088 7.18977C7.14252 7.16441 7.02416 7.1475 6.89735 7.13059L6.71981 7.10523C6.66063 7.09678 6.593 7.09678 6.55073 7.08832L6.71981 7.05451C6.52537 7.12214 6.32247 7.19823 6.11957 7.24895C5.91667 7.29968 5.69687 7.3504 5.46861 7.36731C5.3587 7.37576 5.24035 7.37576 5.12199 7.36731C5.06281 7.35886 4.99518 7.35885 4.936 7.34195C4.86836 7.32504 4.80919 7.31658 4.72464 7.28277L4.63165 7.2405C4.60629 7.23204 4.58092 7.21514 4.55556 7.19823C4.50484 7.17286 4.45411 7.13905 4.40339 7.10523C4.30194 7.0376 4.19204 6.95306 4.08213 6.8347C3.98068 6.71634 3.87923 6.5219 3.87923 6.30209C3.87923 6.25137 3.88769 6.19219 3.89614 6.14146C3.9046 6.09074 3.92996 6.04847 3.94687 5.99774C3.95532 5.97238 3.96378 5.95547 3.98068 5.93857L4.0145 5.87939C4.03986 5.83712 4.05677 5.81175 4.08213 5.78639C4.17513 5.66803 4.25967 5.59195 4.34421 5.53277C4.42875 5.46514 4.49638 5.41441 4.55556 5.36369C4.61474 5.31296 4.66547 5.26224 4.69928 5.21997C4.7331 5.1777 4.75846 5.13543 4.77537 5.09315C4.79228 5.05088 4.80073 5.01707 4.80073 4.98325C4.80073 4.95789 4.79228 4.91562 4.76691 4.85644C4.70774 4.73808 4.56402 4.56055 4.45411 4.31538C4.40339 4.18857 4.36957 4.0533 4.36112 3.91803C4.36112 3.78277 4.36957 3.6475 4.41184 3.51224C4.45411 3.37697 4.5302 3.25861 4.60629 3.16562C4.68237 3.07262 4.75846 2.99654 4.82609 2.92045C4.96981 2.77673 5.11353 2.64992 5.25725 2.51465C5.39252 2.37939 5.51933 2.23567 5.64614 2.09195L6.00967 1.63543L6.73672 0.722382L6.77054 0.671657L6.83817 0.637841C7.32006 0.392672 7.85266 0.274314 8.37682 0.240498C8.90097 0.206681 9.41667 0.240498 9.92392 0.325039C10.4312 0.401126 10.9215 0.527937 11.4034 0.671657C11.8853 0.815377 12.3587 0.984459 12.8237 1.1789C13.7452 1.55934 14.6498 1.99895 15.5121 2.48929C15.7234 2.6161 15.9432 2.74291 16.1546 2.86972C16.3659 2.99654 16.5773 3.1318 16.7802 3.26707C16.9916 3.40233 17.1945 3.5376 17.3974 3.68977C17.6002 3.83349 17.8031 3.97721 18.006 4.13784L18.099 4.20547L18.1751 4.34074C18.5978 5.10161 19.029 5.86248 19.4602 6.62335C19.8913 7.38422 20.3225 8.13663 20.7705 8.88905C21.2102 9.64146 21.6582 10.3854 22.1147 11.1209C22.5713 11.8564 23.0447 12.575 23.5266 13.3021C24.0423 14.0799 24.4734 14.8999 24.837 15.7538L24.9722 16.075L25.099 16.3963L25.2174 16.726L25.3273 17.0388C25.471 17.4615 25.6063 17.8842 25.7331 18.3407C25.8515 18.7973 25.9698 19.2707 26.0121 19.8033C26.0205 19.9386 26.029 20.0654 26.029 20.2091L26.0205 20.412L26.0036 20.6233C25.9952 20.7671 25.9614 20.9108 25.936 21.0545C25.9191 21.1221 25.8937 21.1982 25.8768 21.2659C25.8515 21.3335 25.8345 21.4096 25.8092 21.4772C25.7585 21.6125 25.6993 21.7562 25.6316 21.883C25.564 22.0098 25.4964 22.1451 25.378 22.2888C25.3273 22.3564 25.2681 22.4241 25.2089 22.4917C25.1498 22.5509 25.0906 22.6101 25.0314 22.6608C24.9722 22.7115 24.913 22.7622 24.8539 22.8045L24.6848 22.9313C24.4565 23.0835 24.2367 23.2103 24.0169 23.3287C23.7971 23.447 23.5858 23.54 23.3744 23.6415C22.5205 24.0134 21.6751 24.3093 20.8297 24.5883C20.6184 24.6644 20.407 24.7236 20.1957 24.7912L19.8744 24.8927L19.5616 24.9857C19.1389 25.1125 18.7246 25.2393 18.3019 25.3661C17.8792 25.4929 17.4565 25.6113 17.0254 25.7296C16.5942 25.848 16.1546 25.9579 15.7065 26.0509C15.2585 26.1439 14.8019 26.2284 14.337 26.2876C14.2186 26.3045 14.1002 26.313 13.9903 26.3214L13.6522 26.3468C13.4239 26.3637 13.1957 26.389 12.9759 26.389C12.7476 26.3975 12.5193 26.4144 12.2995 26.4144L11.6232 26.4229L10.9469 26.406C10.7186 26.3975 10.4988 26.3806 10.2705 26.3721C9.36595 26.313 8.47827 26.2115 7.59059 26.0678C6.70291 25.9325 5.83213 25.7465 4.96136 25.5521C4.5302 25.4506 4.09904 25.3492 3.67634 25.2477C3.24518 25.1378 2.81402 25.0364 2.35749 25.0364L2.64493 23.6922Z" fill="#6362E7"/>
<path d="M8.80806 1.62695C8.67279 2.22719 8.46144 2.75135 8.25854 3.26705L8.18245 3.46149L8.10636 3.65594C8.05564 3.78275 8.01337 3.90956 7.96265 4.02792C7.8781 4.27309 7.78511 4.51826 7.72593 4.73806C7.70902 4.79724 7.70057 4.84797 7.69211 4.89869C7.68366 4.94942 7.67521 5.00014 7.66675 5.05087C7.6583 5.14386 7.6583 5.21995 7.66675 5.27913C7.67521 5.30449 7.67521 5.32985 7.68366 5.34676C7.68366 5.35521 7.70057 5.37212 7.70057 5.38058C7.70902 5.39748 7.70902 5.40594 7.72593 5.42285C7.74284 5.43975 7.75129 5.45666 7.7682 5.47357C7.78511 5.49048 7.80202 5.50739 7.82738 5.5243C7.8612 5.55811 7.91192 5.59193 7.95419 5.6342C8.14864 5.77792 8.38535 5.90473 8.63052 6.04C8.74888 6.10763 8.88414 6.17526 9.01095 6.24289C9.13777 6.31053 9.27303 6.38661 9.39984 6.4627C9.10395 6.53879 8.7996 6.56415 8.49525 6.5557C8.19091 6.54724 7.88656 6.51343 7.57376 6.40352C7.49767 6.36971 7.41313 6.34434 7.33704 6.30207C7.29477 6.27671 7.2525 6.2598 7.21868 6.23444C7.17641 6.20908 7.13414 6.17526 7.09187 6.1499C7.0496 6.12454 7.00733 6.08227 6.97352 6.04C6.93124 5.99773 6.88897 5.96391 6.85516 5.91318C6.82134 5.86246 6.77907 5.81174 6.75371 5.76101C6.72835 5.71029 6.70298 5.65111 6.67762 5.60038C6.59308 5.38058 6.57617 5.17768 6.57617 4.98323C6.58463 4.89024 6.59308 4.79724 6.60153 4.7127C6.61844 4.62816 6.63535 4.54362 6.65226 4.45908C6.7368 4.12937 6.86361 3.85038 7.00733 3.57985C7.08342 3.44459 7.15951 3.31777 7.24405 3.19096C7.28632 3.13178 7.32859 3.06415 7.37086 3.00497L7.50612 2.82744C7.59912 2.70908 7.69211 2.59918 7.79356 2.48927C7.84429 2.43855 7.89501 2.37937 7.94574 2.32864C7.99646 2.27792 8.04719 2.22719 8.10636 2.17647C8.31772 1.98203 8.54598 1.79604 8.80806 1.62695Z" fill="#6362E7"/>
<path d="M9.62781 2.85303C9.67008 2.86148 9.69544 2.8953 9.7208 2.93757C9.73771 2.97984 9.75462 3.02211 9.75462 3.06438C9.76307 3.14892 9.75462 3.23346 9.73771 3.318C9.7208 3.40254 9.69544 3.47863 9.67008 3.55472C9.64472 3.62235 9.62781 3.68998 9.6109 3.75762C9.54327 4.0366 9.47563 4.31559 9.42491 4.59457C9.39955 4.72984 9.37418 4.87356 9.34882 5.00037C9.33191 5.13564 9.31501 5.2709 9.30655 5.38926C9.2981 5.51607 9.30655 5.63443 9.32346 5.70206C9.33191 5.73588 9.34882 5.75279 9.34037 5.73588C9.34037 5.72742 9.33191 5.72742 9.33191 5.71897C9.32346 5.71052 9.31501 5.70206 9.30655 5.69361C9.2981 5.68515 9.2981 5.68515 9.28964 5.6767L9.28119 5.66824C9.28119 5.66824 9.27274 5.65979 9.28119 5.66824L9.32346 5.69361C9.56018 5.81196 9.80534 5.93032 10.0505 6.03177C10.1773 6.0825 10.2957 6.12477 10.414 6.15858C10.5239 6.1924 10.6423 6.21776 10.7015 6.22622C10.7099 6.22622 10.7184 6.22622 10.7184 6.22622C10.7184 6.22622 10.7184 6.22622 10.7268 6.22622H10.7437L10.7691 6.21776L10.8283 6.20931L11.0143 6.17549C11.0396 6.17549 11.0566 6.16704 11.0566 6.16704C11.0566 6.16704 11.0566 6.16704 11.0566 6.17549C11.0481 6.18395 11.0481 6.18395 11.0396 6.1924C11.0312 6.20931 11.0143 6.23467 11.0143 6.24312C11.0143 6.25158 11.0143 6.25158 11.0143 6.25158C11.0143 6.25158 11.0143 6.25158 11.0227 6.24312C11.0312 6.22622 11.0396 6.16704 11.0481 6.11631C11.0481 6.06559 11.0566 6.01486 11.0481 5.95568C11.0481 5.90496 11.0396 5.84578 11.0227 5.7866C11.0143 5.76124 11.0143 5.72742 11.0058 5.70206L10.9974 5.65979C10.9974 5.65134 10.9889 5.63443 10.9889 5.63443L10.9382 5.49071C10.9382 5.41462 10.9466 5.33854 10.9636 5.25399C10.9805 5.16945 11.0058 5.08491 11.0819 4.97501C11.0988 4.94965 11.1242 4.92428 11.158 4.89892C11.1834 4.87356 11.2341 4.8482 11.2679 4.83974C11.344 4.81438 11.4116 4.81438 11.4708 4.82283C11.5807 4.83974 11.6483 4.89047 11.7075 4.93274C11.8259 5.02573 11.9104 5.12718 11.9865 5.22863C12.0626 5.33853 12.1133 5.44844 12.164 5.5668C12.0626 5.49916 11.9527 5.43153 11.8512 5.38081C11.7498 5.33008 11.6399 5.27936 11.5469 5.26245C11.5046 5.25399 11.4539 5.25399 11.4454 5.26245C11.4454 5.2709 11.4454 5.2709 11.4708 5.2709C11.4793 5.2709 11.4962 5.26245 11.5046 5.25399C11.5131 5.24554 11.5215 5.24554 11.5215 5.24554C11.53 5.24554 11.53 5.2709 11.5384 5.31317C11.5469 5.34699 11.5553 5.39771 11.5638 5.43998L11.5131 5.29626L11.5638 5.3639C11.5807 5.38081 11.5892 5.40617 11.6061 5.42308C11.6314 5.46535 11.6568 5.49916 11.6737 5.54143C11.716 5.61752 11.7498 5.70206 11.7836 5.79506C11.8174 5.8796 11.8428 5.97259 11.8512 6.07404C11.8597 6.16704 11.8766 6.26849 11.8597 6.38684C11.8512 6.42066 11.8512 6.45448 11.8428 6.48829C11.8343 6.53056 11.8259 6.56438 11.809 6.60665C11.7752 6.68274 11.7244 6.77573 11.6568 6.83491C11.623 6.86873 11.5892 6.89409 11.5553 6.91945C11.5215 6.94482 11.4877 6.96172 11.4623 6.97863C11.4032 7.01245 11.344 7.02936 11.3017 7.04626C11.2087 7.08008 11.1326 7.09699 11.065 7.12235L11.0143 7.13926L10.9889 7.14771H10.972L10.9466 7.15617C10.9128 7.16462 10.879 7.17308 10.8452 7.17308C10.8114 7.18153 10.786 7.18153 10.7522 7.18153C10.7268 7.18153 10.693 7.18153 10.6677 7.18153H10.5916C10.5409 7.18153 10.4901 7.17308 10.4479 7.16462C10.3971 7.15617 10.3549 7.14771 10.3126 7.13926C10.2703 7.13081 10.228 7.12235 10.1858 7.1139C10.0167 7.07163 9.86452 7.0209 9.71235 6.96172C9.41646 6.84337 9.12902 6.7081 8.85848 6.53056L8.80776 6.49675L8.7824 6.47984L8.74858 6.45448C8.73167 6.43757 8.70631 6.42066 8.6894 6.40375C8.65559 6.36994 8.62177 6.33612 8.58795 6.29385C8.56259 6.26003 8.53723 6.21776 8.52032 6.18395C8.44423 6.04023 8.42732 5.91341 8.41887 5.80351C8.40196 5.5837 8.42732 5.40617 8.4696 5.24554C8.50341 5.07646 8.55414 4.92428 8.60486 4.78056C8.65559 4.62839 8.72322 4.48467 8.79085 4.3494C8.92612 4.07042 9.07829 3.80834 9.26428 3.55472C9.31501 3.49554 9.35728 3.42791 9.41646 3.36873C9.46718 3.318 9.50945 3.26728 9.55172 3.21655C9.59399 3.16583 9.62781 3.10665 9.66163 3.04747C9.67853 3.01366 9.68699 2.98829 9.68699 2.95448C9.65317 2.92066 9.65317 2.88684 9.62781 2.85303Z" fill="#6362E7"/>
<path d="M7.19327 2.03271C6.97347 2.52305 6.77057 2.95421 6.62685 3.37692C6.48313 3.79962 6.39859 4.21387 6.39013 4.61967C6.38168 4.85639 6.38168 5.05928 6.40704 5.22837C6.4324 5.39745 6.47468 5.54117 6.56767 5.67643C6.61839 5.74407 6.67757 5.8117 6.74521 5.87088C6.82129 5.93006 6.90583 5.98924 6.99883 6.03151C7.19327 6.13296 7.42999 6.20059 7.69207 6.25977C7.58216 6.33585 7.45535 6.40349 7.32854 6.44576C7.20173 6.48803 7.05801 6.52185 6.91429 6.52185C6.77057 6.5303 6.6184 6.51339 6.46622 6.47112C6.39013 6.44576 6.31405 6.4204 6.23796 6.38658C6.16187 6.35276 6.09424 6.31049 6.02661 6.25977C5.89134 6.15832 5.77298 6.03996 5.67154 5.89624C5.57854 5.75252 5.51091 5.60035 5.46018 5.44817C5.41791 5.296 5.39255 5.14383 5.37564 5.00011C5.36719 4.92402 5.36719 4.85639 5.36719 4.78875V4.6873V4.63658V4.58586C5.3841 4.00252 5.58699 3.4361 5.9167 2.99648C6.07733 2.77668 6.27178 2.58223 6.48313 2.41315C6.70294 2.25252 6.93965 2.11726 7.19327 2.03271Z" fill="#6362E7"/>
</svg>
