<svg width="29" height="29" viewBox="0 0 29 29" fill="none" xmlns="http://www.w3.org/2000/svg">
<path d="M27 0.521973H1.125C0.502734 0.521973 0 1.02357 0 1.64444V27.4611C0 28.082 0.502734 28.5836 1.125 28.5836H27C27.6223 28.5836 28.125 28.082 28.125 27.4611V1.64444C28.125 1.02357 27.6223 0.521973 27 0.521973ZM17.1035 8.90186H21.9691V10.084H17.1035V8.90186ZM14.0625 18.6498C13.8349 19.0808 13.5099 19.4531 13.1133 19.7371C12.6984 20.0248 12.2379 20.2352 11.7492 20.358C11.238 20.4947 10.7105 20.562 10.1813 20.5579H4.35938V8.59319H10.0195C10.5926 8.59319 11.1129 8.6458 11.5875 8.74402C12.0586 8.84223 12.4594 9.0106 12.7969 9.2386C13.1309 9.4666 13.3945 9.77177 13.5809 10.1506C13.7637 10.5259 13.8586 10.996 13.8586 11.5537C13.8586 12.157 13.7215 12.6551 13.4473 13.0585C13.1695 13.4619 12.7688 13.7881 12.2238 14.0441C12.9656 14.2546 13.5105 14.6299 13.8691 15.1561C14.2348 15.6893 14.4141 16.3277 14.4141 17.0783C14.4141 17.6886 14.298 18.2113 14.0625 18.6498ZM23.8641 16.7977H17.5922C17.5922 17.4782 17.8277 18.1306 18.1828 18.4814C18.5414 18.8286 19.0547 19.004 19.7262 19.004C20.2113 19.004 20.6227 18.8813 20.9742 18.6392C21.3223 18.3972 21.5332 18.1411 21.6105 17.8746H23.7129C23.3754 18.9163 22.8621 19.66 22.166 20.109C21.477 20.5579 20.6332 20.7824 19.6523 20.7824C18.9668 20.7824 18.3516 20.6702 17.7996 20.4562C17.2687 20.2493 16.7906 19.9336 16.3969 19.5267C16.0086 19.1088 15.7086 18.6174 15.5145 18.0815C15.3 17.4887 15.1945 16.8643 15.2016 16.2365C15.2016 15.5875 15.3105 14.9842 15.5215 14.423C15.9258 13.3321 16.766 12.4587 17.8383 12.0062C18.4113 11.7677 19.0266 11.6484 19.6488 11.6554C20.3871 11.6554 21.027 11.7957 21.5824 12.0833C22.1172 12.358 22.5815 12.7517 22.9395 13.2339C23.2945 13.7144 23.5441 14.2616 23.7023 14.879C23.8535 15.4858 23.9062 16.1242 23.8641 16.7977ZM19.575 13.4443C19.1953 13.4443 18.8754 13.511 18.6293 13.6408C18.3832 13.7705 18.1793 13.9319 18.0246 14.1178C17.8773 14.2973 17.7684 14.505 17.7047 14.7281C17.6484 14.9141 17.6098 15.1035 17.5957 15.2964H21.4805C21.4242 14.6896 21.2133 14.2406 20.932 13.9249C20.6367 13.6127 20.1621 13.4443 19.575 13.4443ZM10.8387 13.0901C11.1445 12.8691 11.2922 12.5043 11.2922 12.0027C11.3027 11.7641 11.2535 11.5291 11.148 11.3152C11.0531 11.1433 10.9125 10.9995 10.7402 10.8977C10.5616 10.7897 10.3632 10.7181 10.1566 10.6873C9.93164 10.6452 9.70312 10.6241 9.47813 10.6277H7.00664V13.4233H9.68203C10.1426 13.4268 10.5328 13.3145 10.8387 13.0901ZM11.2535 15.6156C10.909 15.3525 10.4484 15.2227 9.87539 15.2227H6.99961V18.52H9.81914C10.0828 18.52 10.3254 18.4954 10.5609 18.4463C10.7965 18.3972 11.0074 18.313 11.1867 18.1938C11.366 18.078 11.5102 17.9202 11.6191 17.7167C11.7246 17.5133 11.7773 17.2537 11.7773 16.9415C11.7773 16.3206 11.6016 15.8822 11.2535 15.6156Z" fill="#6362E7"/>
</svg>
