<svg width="28" height="29" viewBox="0 0 28 29" fill="none" xmlns="http://www.w3.org/2000/svg">
<path d="M14.0016 0.521974C6.26567 0.518768 0 6.93713 0 14.8591C0 21.1236 3.91956 26.4487 9.37817 28.4043C10.1133 28.5935 10.0007 28.0581 10.0007 27.6926V25.208C5.75578 25.7177 5.58373 22.8388 5.29907 22.3579C4.72349 21.3512 3.36275 21.0947 3.76941 20.6138C4.73601 20.1041 5.72137 20.7421 6.86314 22.4701C7.68897 23.7236 9.29997 23.512 10.1164 23.3036C10.2947 22.5502 10.6763 21.877 11.2019 21.3544C6.80371 20.5465 4.97062 17.7958 4.97062 14.5257C4.97062 12.9387 5.48051 11.48 6.48151 10.3034C5.84337 8.36379 6.54095 6.70309 6.63479 6.45623C8.45224 6.28952 10.3416 7.78992 10.4887 7.90854C11.5209 7.62321 12.7003 7.47253 14.0203 7.47253C15.3467 7.47253 16.5291 7.62962 17.5708 7.91816C17.9243 7.64244 19.676 6.35364 21.3652 6.51073C21.4559 6.75759 22.1379 8.37982 21.5373 10.2938C22.5508 11.4736 23.0669 12.9451 23.0669 14.5353C23.0669 17.8118 21.2213 20.5657 16.8106 21.3608C17.1884 21.7416 17.4884 22.1957 17.693 22.6966C17.8977 23.1975 18.0028 23.7352 18.0025 24.2782V27.885C18.0275 28.1735 18.0025 28.4588 18.4717 28.4588C24.0116 26.5449 28 21.1813 28 14.8623C28 6.93713 21.7312 0.521974 14.0016 0.521974Z" fill="#6362E7"/>
</svg>
