<svg width="29" height="29" viewBox="0 0 29 29" fill="none" xmlns="http://www.w3.org/2000/svg">
<path d="M14.0495 9.86752C11.469 9.86752 9.36316 11.9686 9.36316 14.5433C9.36316 17.1179 11.469 19.219 14.0495 19.219C16.63 19.219 18.7358 17.1179 18.7358 14.5433C18.7358 11.9686 16.63 9.86752 14.0495 9.86752ZM28.105 14.5433C28.105 12.607 28.1225 10.6883 28.0135 8.75558C27.9046 6.51066 27.3913 4.51828 25.746 2.87668C24.0971 1.23157 22.1038 0.722955 19.8538 0.614216C17.9132 0.505477 15.9901 0.523016 14.053 0.523016C12.1124 0.523016 10.1893 0.505477 8.25222 0.614216C6.00222 0.722955 4.00534 1.23508 2.36003 2.87668C0.711202 4.52179 0.201436 6.51066 0.0924519 8.75558C-0.0165325 10.6918 0.0010457 12.6105 0.0010457 14.5433C0.0010457 16.476 -0.0165325 18.3982 0.0924519 20.331C0.201436 22.5759 0.714718 24.5683 2.36003 26.2099C4.00886 27.855 6.00222 28.3636 8.25222 28.4724C10.1928 28.5811 12.1159 28.5636 14.053 28.5636C15.9936 28.5636 17.9167 28.5811 19.8538 28.4724C22.1038 28.3636 24.1007 27.8515 25.746 26.2099C27.3948 24.5648 27.9046 22.5759 28.0135 20.331C28.126 18.3982 28.105 16.4795 28.105 14.5433ZM14.0495 21.7376C10.0592 21.7376 6.83894 18.5245 6.83894 14.5433C6.83894 10.562 10.0592 7.349 14.0495 7.349C18.0397 7.349 21.26 10.562 21.26 14.5433C21.26 18.5245 18.0397 21.7376 14.0495 21.7376ZM21.5553 8.73454C20.6237 8.73454 19.8714 7.98389 19.8714 7.05435C19.8714 6.12481 20.6237 5.37416 21.5553 5.37416C22.487 5.37416 23.2393 6.12481 23.2393 7.05435C23.2396 7.27507 23.1962 7.49368 23.1117 7.69766C23.0272 7.90163 22.9031 8.08696 22.7467 8.24304C22.5903 8.39911 22.4045 8.52287 22.2001 8.6072C21.9957 8.69154 21.7766 8.73481 21.5553 8.73454Z" fill="#6362E7"/>
</svg>
