<svg width="28" height="29" viewBox="0 0 28 29" fill="none" xmlns="http://www.w3.org/2000/svg">
<path d="M28 14.4904C28 18.1951 26.525 21.748 23.8995 24.3676C21.274 26.9872 17.713 28.4588 14 28.4588C10.287 28.4588 6.72601 26.9872 4.10051 24.3676C1.475 21.748 0 18.1951 0 14.4904C0 10.7857 1.475 7.23282 4.10051 4.61323C6.72601 1.99364 10.287 0.521973 14 0.521973C17.713 0.521973 21.274 1.99364 23.8995 4.61323C26.525 7.23282 28 10.7857 28 14.4904ZM14.5022 10.8342C13.1407 11.3999 10.4178 12.5697 6.33675 14.3437C5.67525 14.6056 5.327 14.8641 5.2955 15.1155C5.243 15.5398 5.77675 15.7074 6.503 15.9361L6.80925 16.0322C7.52325 16.2644 8.48575 16.535 8.9845 16.5455C9.4395 16.556 9.94525 16.3709 10.5035 15.9868C14.3167 13.4183 16.2855 12.121 16.408 12.0931C16.4955 12.0721 16.618 12.0477 16.6985 12.121C16.7808 12.1926 16.772 12.3305 16.7633 12.3672C16.7108 12.5924 14.616 14.5341 13.5327 15.5398C13.195 15.8541 12.9552 16.0758 12.9062 16.1265C12.7984 16.2365 12.6887 16.3448 12.5772 16.4512C11.9122 17.0903 11.4152 17.5687 12.6035 18.3509C13.1757 18.7281 13.6342 19.0371 14.091 19.3479C14.588 19.6867 15.085 20.0237 15.729 20.4462C15.8917 20.551 16.0493 20.6645 16.2015 20.7727C16.7808 21.1848 17.304 21.5549 17.9463 21.4956C18.3207 21.4607 18.7075 21.1114 18.9035 20.0638C19.3673 17.5897 20.279 12.231 20.489 10.0223C20.5018 9.83864 20.4942 9.65418 20.4662 9.47225C20.4498 9.32544 20.3786 9.19019 20.2668 9.09335C20.1075 8.98368 19.9177 8.92686 19.7243 8.93097C19.1992 8.9397 18.389 9.22081 14.5022 10.8342Z" fill="#6362E7"/>
</svg>
