<svg width="647" height="184" viewBox="0 0 647 184" fill="none" xmlns="http://www.w3.org/2000/svg">
    <path d="M569.337 24.2783H77.3607C34.6356 24.2783 0 58.9139 0 101.639V106.639C0 149.364 34.6356 184 77.3607 184H569.337C612.062 184 646.698 149.364 646.698 106.639V101.639C646.698 58.9139 612.062 24.2783 569.337 24.2783Z" fill="#E3E3F3"/>
    <path d="M121.665 125.823C119.674 134.573 114.587 138.948 106.405 138.948H82.7763C76.0576 138.948 72.6895 136.118 72.6895 130.423C68.2104 137.206 62.6433 140.597 55.9882 140.597C53.6853 140.639 51.4062 140.124 49.3448 139.097C47.2834 138.069 45.5006 136.559 44.148 134.694C40.9447 130.211 39.3426 124.781 39.5995 119.278C39.5995 107.843 42.9212 98.8206 49.5647 92.2118C52.481 89.2592 55.971 86.935 59.8197 85.3824C63.6684 83.8297 67.7942 83.0816 71.943 83.1841H107.516L95.7971 125.823H121.665ZM81.4742 96.309H67.7069L63.3493 115.406C63.1066 116.477 62.9786 117.572 62.9674 118.67C62.9674 123.444 66.4396 125.805 73.5576 125.805L81.4742 96.309Z" fill="#6362E7"/>
    <path d="M196.803 125.822C196.727 127.626 196.262 129.393 195.441 131.002C194.621 132.611 193.463 134.024 192.046 135.145C189.323 137.568 185.813 138.919 182.168 138.947H134.807C125.71 138.947 121.161 135.284 121.161 127.957C121.161 127.315 121.161 126.603 121.283 125.822C121.375 124.342 121.778 122.898 122.466 121.585C123.154 120.272 124.112 119.119 125.276 118.201C127.238 116.622 129.705 115.808 132.22 115.909C136.699 116.071 142.782 119.323 150.467 125.666C152.579 122.385 153.728 118.578 153.783 114.676C153.279 110.362 152.36 106.106 151.04 101.968L144.095 110.405H131.509L148.088 90.2493C147.465 88.8949 146.943 87.4964 146.526 86.0653C145.949 83.7956 145.657 81.4628 145.658 79.1209L160.988 57.6279C167.932 59.1557 171.404 63.2818 171.404 70.0063C171.441 73.8072 170.522 77.5564 168.731 80.909C170.276 86.2736 171.821 91.6382 173.401 96.9854C175.072 102.417 176.035 108.043 176.265 113.721C176.344 118.159 174.78 122.468 171.873 125.822H196.803Z" fill="#6362E7"/>
    <path d="M252.081 125.821C250.125 134.571 244.917 138.946 236.456 138.946H204.72C198.575 138.946 195.502 136.116 195.502 130.422C195.521 128.865 195.749 127.318 196.179 125.821L204.095 96.3075H193.887L197.811 83.1825C205.068 80.7173 210.484 77.5749 214.009 73.7555C218.002 69.4384 222.261 61.6202 226.786 50.3008H238.939L230.137 83.1825H246.213C243.644 91.9325 238.436 96.3075 230.588 96.3075H226.474L218.696 125.821H252.081Z" fill="#6362E7"/>
    <path d="M325.05 125.825C325.059 127.703 324.629 129.557 323.794 131.239C322.959 132.921 321.742 134.384 320.241 135.513C317.795 137.672 314.667 138.901 311.405 138.985H287.533C281.214 138.985 278.054 135.513 278.054 128.568C278.08 126.654 278.355 124.752 278.87 122.909L285.919 96.2594H272.568L265.624 119.801C265.302 121.539 264.362 123.102 262.976 124.2C261.591 125.298 259.855 125.857 258.089 125.773H251.474L259.634 96.2594C256.957 95.3947 254.717 93.5286 253.384 91.0511C251.748 88.2836 250.913 85.1162 250.971 81.9018C250.825 79.1113 251.355 76.3268 252.516 73.7848C253.676 71.2429 255.433 69.0187 257.638 67.3012C261.431 64.4225 266.089 62.9167 270.849 63.0304H280.953L275.745 83.0477H310.207L298.87 125.686L325.05 125.825Z" fill="#6362E7"/>
    <path d="M407.722 125.821C407.158 129.879 405.118 133.587 401.993 136.237C399.921 137.999 397.299 138.981 394.58 139.015H368.538C362.427 139.015 359.371 136.446 359.371 131.307C358.079 133.657 356.175 135.614 353.862 136.971C351.548 138.328 348.911 139.034 346.229 139.015H335.257C333.769 139.087 332.285 138.811 330.922 138.208C329.56 137.605 328.357 136.693 327.41 135.543C325.573 133.119 324.645 130.126 324.788 127.088C324.8 125.037 325.098 122.998 325.674 121.029L336.09 83.2168H358.66L347.01 125.855H359.667L371.246 83.2168H393.625L382.288 125.855L407.722 125.821Z" fill="#6362E7"/>
    <path d="M529.615 125.822C528.4 134.572 523.683 138.947 515.466 138.947H490.171C489.062 138.879 487.984 138.552 487.025 137.991C486.066 137.43 485.253 136.651 484.65 135.717C483.012 133.647 482.125 131.083 482.133 128.443C482.126 127.586 482.207 126.731 482.376 125.891C483.29 121.852 484.662 115.978 486.49 108.27L465.431 131.412C460.119 137.199 455.57 140.092 451.786 140.092C446.126 140.092 443.313 137.315 443.313 131.742C443.344 129.734 443.66 127.741 444.251 125.822L449.234 108.2L424.425 135.388C423.44 136.511 422.221 137.405 420.853 138.005C419.485 138.605 418.001 138.897 416.508 138.86H403.8L418.696 83.0962H441.265L434.216 109.346L453.313 88.6691C458.093 83.484 463.452 80.8856 469.39 80.874C474.286 80.874 476.733 83.374 476.733 88.3393C476.711 89.9244 476.483 91.5 476.056 93.0267L471.577 109.346L490.206 88.5129C494.719 83.4319 499.743 80.8856 505.275 80.874C510.483 80.874 513.122 83.808 513.122 89.6587C513.084 91.8803 512.751 94.0871 512.133 96.2212L504.094 125.735L529.615 125.822Z" fill="#6362E7"/>
    <path d="M548.729 57.3662C549.962 59.1023 561.212 75.5085 554.684 95.4563C551.073 106.498 542.063 118.581 530.379 121.498C524.025 123.078 511.473 123.234 504.337 123.234H500.865L499.129 124.97L516.49 138.859C523.483 138.543 530.397 137.246 537.028 135.005C570.361 123.651 585.118 91.6021 588.851 82.6612L548.729 57.3662Z" fill="#6362E7"/>
    <path d="M602.498 46.6743C608.289 46.6743 612.984 41.9795 612.984 36.1882C612.984 30.3969 608.289 25.7021 602.498 25.7021C596.707 25.7021 592.012 30.3969 592.012 36.1882C592.012 41.9795 596.707 46.6743 602.498 46.6743Z" fill="#E3E3F3" stroke="url(#paint0_linear_2607_1253)" stroke-width="3" stroke-miterlimit="10"/>
    <path d="M620.065 87.2285L611.854 72.6799C611.157 71.4448 610.112 70.4422 608.849 69.7969C607.587 69.1517 606.162 68.8924 604.753 69.0515L617.149 51.5516C617.965 50.4926 618.781 49.3988 619.562 48.2877C629.805 33.8086 630.083 15.1803 629.353 5.406C629.283 4.54755 629.026 3.71495 628.598 2.96699C628.171 2.21902 627.585 1.57392 626.882 1.07721C626.178 0.580507 625.374 0.244303 624.526 0.092333C623.678 -0.0596373 622.807 -0.0236694 621.975 0.197698C612.496 2.74977 595.013 9.20806 584.77 23.6698C584.18 24.5031 583.625 25.3191 583.034 26.1524L570.066 44.4856C569.73 43.131 569.009 41.9029 567.988 40.9506C566.968 39.9982 565.694 39.3627 564.319 39.1211L547.878 36.2044C546.878 36.0284 545.848 36.1698 544.933 36.6088C544.018 37.0478 543.263 37.7624 542.774 38.6523L527.149 67.1244C526.735 67.878 526.53 68.7282 526.553 69.5876C526.577 70.4471 526.828 71.2848 527.282 72.0147C527.737 72.7447 528.377 73.3406 529.138 73.7412C529.898 74.1419 530.752 74.3328 531.611 74.2945L550.1 73.5306C551.989 73.4517 553.772 72.6351 555.066 71.2563L584.579 92.0896C583.733 93.7617 583.566 95.6959 584.111 97.4888L589.527 115.197C589.79 116.013 590.264 116.745 590.901 117.319C591.538 117.893 592.316 118.288 593.155 118.465C593.994 118.641 594.865 118.592 595.679 118.323C596.494 118.054 597.222 117.575 597.791 116.933L619.458 92.7493C620.115 92.0037 620.526 91.0732 620.635 90.085C620.744 89.0969 620.545 88.0992 620.065 87.2285ZM596.281 44.9197C594.556 43.7041 593.23 42.0039 592.472 40.0343C591.714 38.0648 591.558 35.9147 592.023 33.8563C592.489 31.7979 593.554 29.9239 595.085 28.4717C596.617 27.0195 598.544 26.0545 600.625 25.6988C602.705 25.3432 604.844 25.613 606.77 26.4741C608.697 27.3351 610.325 28.7486 611.447 30.5356C612.57 32.3225 613.137 34.4025 613.076 36.5119C613.016 38.6214 612.33 40.6654 611.107 42.385C609.473 44.682 606.996 46.2383 604.217 46.7133C601.439 47.1883 598.585 46.5434 596.281 44.9197Z" fill="url(#paint1_linear_2607_1253)"/>
    <defs>
        <linearGradient id="paint0_linear_2607_1253" x1="589.39" y1="36.1882" x2="615.588" y2="36.1882" gradientUnits="userSpaceOnUse">
            <stop stop-color="#B1DBFF"/>
            <stop offset="1" stop-color="#AA98FE"/>
        </linearGradient>
        <linearGradient id="paint1_linear_2607_1253" x1="526.611" y1="59.2946" x2="629.597" y2="59.2946" gradientUnits="userSpaceOnUse">
            <stop stop-color="#6362E7"/>
            <stop offset="0.69" stop-color="#4F4FE7"/>
            <stop offset="1" stop-color="#4325FE"/>
        </linearGradient>
    </defs>
</svg>

