<svg width="22" height="22" viewBox="0 0 22 22" fill="none" xmlns="http://www.w3.org/2000/svg">
<path d="M12.6695 10.9987L21.133 0.910164C21.2749 0.742505 21.1556 0.487793 20.9363 0.487793H18.3634C18.2119 0.487793 18.0668 0.555501 17.9668 0.671573L10.9864 8.99325L4.00601 0.671573C3.90928 0.555501 3.76419 0.487793 3.60943 0.487793H1.03652C0.817269 0.487793 0.697973 0.742505 0.839838 0.910164L9.30338 10.9987L0.839838 21.0872C0.808059 21.1246 0.787672 21.1703 0.781096 21.2189C0.77452 21.2675 0.782031 21.317 0.802739 21.3615C0.823447 21.406 0.856481 21.4436 0.89792 21.4698C0.939358 21.4961 0.98746 21.5099 1.03652 21.5096H3.60943C3.76097 21.5096 3.90606 21.4419 4.00601 21.3258L10.9864 13.0042L17.9668 21.3258C18.0635 21.4419 18.2086 21.5096 18.3634 21.5096H20.9363C21.1556 21.5096 21.2749 21.2549 21.133 21.0872L12.6695 10.9987Z" fill="#6362E7"/>
</svg>
