<svg width="49" height="42" viewBox="0 0 49 42" fill="none" xmlns="http://www.w3.org/2000/svg">
<path fill-rule="evenodd" clip-rule="evenodd" d="M25.7673 0.385498L27.0081 3.62105C28.2067 6.74648 29.4008 9.87613 30.5943 13.0044C31.58 15.5878 32.5653 18.1703 33.553 20.7501C35.3053 19.6672 37.0554 18.5866 38.8053 17.506L38.8096 17.5034C41.0527 16.1183 43.2954 14.7335 45.5424 13.3443L48.6503 11.4228L47.6927 14.979C46.5559 19.2003 45.4191 23.4172 44.2824 27.6338L44.2822 27.6349C43.1453 31.8519 42.0086 36.0688 40.8718 40.29L40.5801 41.3735L9.72939 41.2592L9.41263 40.237C8.16239 36.2022 6.90775 32.1673 5.65285 28.1315C4.39803 24.096 3.14295 20.0597 1.89221 16.0233L0.831055 12.5987L3.95652 14.2945C6.25687 15.5427 8.56153 16.7952 10.8657 18.0474C12.7162 19.0531 14.5664 20.0586 16.4142 21.0618C17.6273 18.3763 18.8429 15.6938 20.0581 13.0122L20.0594 13.0093C21.4892 9.8543 22.9183 6.7006 24.343 3.54267L25.7673 0.385498ZM22.6892 14.2315C21.2595 17.3865 19.8303 20.5402 18.4057 23.6981L17.7651 25.1181L16.4058 24.3805C14.1054 23.1324 11.8007 21.8799 9.49659 20.6276C8.23608 19.9426 6.97573 19.2576 5.71617 18.5734C6.61404 21.4662 7.51358 24.359 8.41324 27.2523C9.56214 30.9472 10.7113 34.6427 11.857 38.3384L38.3716 38.4365C39.4112 34.5767 40.4508 30.7203 41.4903 26.864L41.4911 26.8612C42.3084 23.8293 43.1257 20.7975 43.943 17.7641C42.7352 18.5102 41.5281 19.2555 40.3212 20.0008L40.3169 20.0035C38.0738 21.3885 35.8311 22.7734 33.5842 24.1626L32.1072 25.0757L31.481 23.4428C30.2824 20.3173 29.0883 17.1877 27.8947 14.0594C27.1131 12.0108 26.3317 9.9628 25.5492 7.91629C24.5969 10.0218 23.6435 12.1257 22.6903 14.2291L22.6892 14.2315Z" fill="#6362E7"/>
</svg>
