<svg width="16" height="17" viewBox="0 0 16 17" fill="none" xmlns="http://www.w3.org/2000/svg">
<path d="M15.36 15.4312H0.64C0.286 15.4312 0 15.7166 0 16.0698V16.7882C0 16.876 0.072 16.9478 0.16 16.9478H15.84C15.928 16.9478 16 16.876 16 16.7882V16.0698C16 15.7166 15.714 15.4312 15.36 15.4312ZM2.914 13.755C2.954 13.755 2.994 13.751 3.034 13.745L6.398 13.1564C6.438 13.1484 6.476 13.1304 6.504 13.1005L14.982 4.64162C15.0005 4.62316 15.0153 4.60123 15.0253 4.57709C15.0353 4.55295 15.0405 4.52707 15.0405 4.50094C15.0405 4.4748 15.0353 4.44893 15.0253 4.42479C15.0153 4.40065 15.0005 4.37872 14.982 4.36026L11.658 1.04176C11.62 1.00384 11.57 0.983887 11.516 0.983887C11.462 0.983887 11.412 1.00384 11.374 1.04176L2.896 9.50064C2.866 9.53057 2.848 9.56649 2.84 9.6064L2.25 12.9628C2.23054 13.0697 2.2375 13.1797 2.27025 13.2834C2.30301 13.387 2.36059 13.4811 2.438 13.5575C2.57 13.6852 2.736 13.755 2.914 13.755ZM4.262 10.2749L11.516 3.03924L12.982 4.50194L5.728 11.7376L3.95 12.0509L4.262 10.2749Z" fill="#6362E7"/>
<path d="M4 9.46499L5.25 10.7122M6.5 11.9594L5.25 10.7122M5.25 10.7122L12.5 3.47852" stroke="#6362E7" stroke-width="0.7"/>
</svg>
