<svg width="24" height="24" viewBox="0 0 24 24" fill="none" xmlns="http://www.w3.org/2000/svg">
<path d="M6 9.5625C6 9.90349 6.13546 10.2305 6.37658 10.4716C6.6177 10.7128 6.94472 10.8482 7.28571 10.8482C7.62671 10.8482 7.95373 10.7128 8.19485 10.4716C8.43597 10.2305 8.57143 9.90349 8.57143 9.5625C8.57143 9.22151 8.43597 8.89448 8.19485 8.65336C7.95373 8.41224 7.62671 8.27679 7.28571 8.27679C6.94472 8.27679 6.6177 8.41224 6.37658 8.65336C6.13546 8.89448 6 9.22151 6 9.5625ZM15.4286 9.5625C15.4286 9.90349 15.564 10.2305 15.8051 10.4716C16.0463 10.7128 16.3733 10.8482 16.7143 10.8482C17.0553 10.8482 17.3823 10.7128 17.6234 10.4716C17.8645 10.2305 18 9.90349 18 9.5625C18 9.22151 17.8645 8.89448 17.6234 8.65336C17.3823 8.41224 17.0553 8.27679 16.7143 8.27679C16.3733 8.27679 16.0463 8.41224 15.8051 8.65336C15.564 8.89448 15.4286 9.22151 15.4286 9.5625ZM12 0C5.37321 0 0 5.37321 0 12C0 18.6268 5.37321 24 12 24C18.6268 24 24 18.6268 24 12C24 5.37321 18.6268 0 12 0ZM19.0446 19.0446C18.1286 19.9607 17.0625 20.6786 15.8759 21.1821C14.6518 21.7018 13.3473 21.9643 12 21.9643C10.6527 21.9643 9.34822 21.7018 8.12143 21.1821C6.93662 20.6818 5.8604 19.9558 4.95268 19.0446C4.03661 18.1286 3.31875 17.0625 2.81518 15.8759C2.29821 14.6518 2.03571 13.3473 2.03571 12C2.03571 10.6527 2.29821 9.34822 2.81786 8.12143C3.31824 6.93662 4.04421 5.8604 4.95536 4.95268C5.87143 4.03661 6.9375 3.31875 8.12411 2.81518C9.34821 2.29821 10.6527 2.03571 12 2.03571C13.3473 2.03571 14.6518 2.29821 15.8786 2.81786C17.0634 3.31824 18.1396 4.04421 19.0473 4.95536C19.9634 5.87143 20.6813 6.9375 21.1848 8.12411C21.7018 9.34821 21.9643 10.6527 21.9643 12C21.9643 13.3473 21.7018 14.6518 21.1821 15.8786C20.6824 17.0629 19.9563 18.1384 19.0446 19.0446ZM16.0714 12.5625H14.783C14.6705 12.5625 14.5741 12.6482 14.5661 12.7607C14.4643 14.0866 13.3527 15.1339 12 15.1339C10.6473 15.1339 9.53304 14.0866 9.43393 12.7607C9.42589 12.6482 9.32946 12.5625 9.21696 12.5625H7.92857C7.89951 12.5625 7.87074 12.5683 7.84402 12.5798C7.81729 12.5912 7.79318 12.608 7.77313 12.629C7.75309 12.65 7.73753 12.675 7.72742 12.7022C7.7173 12.7295 7.71283 12.7585 7.71429 12.7875C7.83214 15.0455 9.70982 16.8482 12 16.8482C14.2902 16.8482 16.1679 15.0455 16.2857 12.7875C16.2872 12.7585 16.2827 12.7295 16.2726 12.7022C16.2625 12.675 16.2469 12.65 16.2269 12.629C16.2068 12.608 16.1827 12.5912 16.156 12.5798C16.1293 12.5683 16.1005 12.5625 16.0714 12.5625Z" fill="#999999"/>
</svg>
