<svg width="22" height="28" viewBox="0 0 22 28" fill="none" xmlns="http://www.w3.org/2000/svg">
<path d="M21.7062 7.01875L14.9813 0.29375C14.7938 0.10625 14.5406 0 14.275 0H1C0.446875 0 0 0.446875 0 1V27C0 27.5531 0.446875 28 1 28H21C21.5531 28 22 27.5531 22 27V7.72812C22 7.4625 21.8937 7.20625 21.7062 7.01875ZM19.6938 8.1875H13.8125V2.30625L19.6938 8.1875ZM19.75 25.75H2.25V2.25H11.6875V9C11.6875 9.3481 11.8258 9.68194 12.0719 9.92808C12.3181 10.1742 12.6519 10.3125 13 10.3125H19.75V25.75Z" fill="#999999"/>
</svg>
