<svg width="70" height="69" viewBox="0 0 70 69" fill="none" xmlns="http://www.w3.org/2000/svg">
<path d="M34.1678 68.3519C33.3144 68.3519 32.6318 68.0959 32.1198 67.5839C31.6078 67.0719 31.3518 66.3893 31.3518 65.5359V37.5039H3.57577C2.72243 37.5039 2.03977 37.2479 1.52777 36.7359C1.01577 36.2239 0.759766 35.5413 0.759766 34.6879V32.8959C0.759766 32.0426 1.01577 31.3599 1.52777 30.8479C2.03977 30.3359 2.72243 30.0799 3.57577 30.0799H31.3518V2.81594C31.3518 1.96261 31.6078 1.27994 32.1198 0.767937C32.6318 0.255938 33.3144 -6.10352e-05 34.1678 -6.10352e-05H36.0878C36.9411 -6.10352e-05 37.6238 0.255938 38.1358 0.767937C38.6478 1.27994 38.9038 1.96261 38.9038 2.81594V30.0799H66.8078C67.6611 30.0799 68.3438 30.3359 68.8558 30.8479C69.3678 31.3599 69.6238 32.0426 69.6238 32.8959V34.6879C69.6238 35.5413 69.3678 36.2239 68.8558 36.7359C68.3438 37.2479 67.6611 37.5039 66.8078 37.5039H38.9038V65.5359C38.9038 66.3893 38.6478 67.0719 38.1358 67.5839C37.6238 68.0959 36.9411 68.3519 36.0878 68.3519H34.1678Z" fill="#6362E7"/>
</svg>
