<svg width="12" height="15" viewBox="0 0 12 15" fill="none" xmlns="http://www.w3.org/2000/svg">
<path d="M11.4903 6.7883C11.1594 6.05574 10.6784 5.39824 10.0773 4.85692L9.58124 4.40929C9.5644 4.3945 9.54413 4.38401 9.5222 4.37874C9.50028 4.37346 9.47737 4.37355 9.45549 4.37902C9.43361 4.38448 9.41343 4.39514 9.39672 4.41006C9.38001 4.42499 9.36728 4.44372 9.35965 4.46461L9.13806 5.08996C8.99999 5.48227 8.74601 5.88297 8.38635 6.27695C8.36249 6.3021 8.33522 6.30881 8.31647 6.31048C8.29772 6.31216 8.26874 6.30881 8.24317 6.28534C8.21931 6.26522 8.20738 6.23504 8.20908 6.20486C8.27215 5.19558 7.96533 4.05721 7.29374 2.81825C6.73806 1.78885 5.9659 0.985787 5.00113 0.425822L4.29715 0.0184221C4.20511 -0.0352273 4.0875 0.0351874 4.09261 0.14081L4.13011 0.94555C4.15568 1.49546 4.0909 1.98165 3.9375 2.3857C3.75 2.88028 3.48068 3.33965 3.13636 3.75208C2.89674 4.03871 2.62515 4.29796 2.3267 4.52497C1.60791 5.06844 1.02343 5.76483 0.617045 6.56197C0.21166 7.36606 0.000494592 8.25135 0 9.14887C0 9.9402 0.158523 10.7064 0.472159 11.429C0.774999 12.1247 1.21203 12.7561 1.75909 13.2883C2.31136 13.8247 2.95227 14.2472 3.66647 14.5406C4.40625 14.8458 5.19034 15 5.99999 15C6.80965 15 7.59374 14.8458 8.33351 14.5423C9.04596 14.2506 9.69382 13.8252 10.2409 13.2899C10.7932 12.7534 11.2261 12.1264 11.5278 11.4306C11.841 10.71 12.0016 9.93423 12 9.15055C12 8.33239 11.8295 7.53771 11.4903 6.7883ZM9.42613 12.4768C8.51079 13.3687 7.29545 13.8583 5.99999 13.8583C4.70454 13.8583 3.4892 13.3687 2.57386 12.4768C1.66193 11.5866 1.15909 10.4063 1.15909 9.15055C1.15909 8.42125 1.32614 7.72213 1.65511 7.07163C1.97557 6.43622 2.45284 5.86788 3.03238 5.4303C3.40199 5.15232 3.73723 4.83272 4.03125 4.47802C4.45738 3.96668 4.79147 3.39665 5.02329 2.78472C5.11838 2.53229 5.18748 2.27112 5.22954 2.00512C5.64033 2.37732 5.98465 2.82663 6.27272 3.35306C6.84204 4.40258 7.10454 5.33641 7.0534 6.13109C7.04118 6.31826 7.07226 6.50571 7.1443 6.67936C7.21634 6.85301 7.32746 7.00834 7.46931 7.13367C7.59224 7.24289 7.73601 7.32699 7.89227 7.3811C8.04852 7.43521 8.21415 7.45824 8.37954 7.44886C8.71533 7.43209 9.02385 7.28623 9.24885 7.03978C9.47556 6.78998 9.67158 6.53514 9.83522 6.27528C10.0739 6.57538 10.2733 6.9023 10.4318 7.25438C10.7028 7.85458 10.8409 8.49334 10.8409 9.15055C10.8409 10.4063 10.3381 11.5882 9.42613 12.4768Z" fill="red"/>
</svg>
