<svg width="13" height="13" viewBox="0 0 13 13" fill="none" xmlns="http://www.w3.org/2000/svg">
<path d="M12.495 3.98125C12.1671 3.20212 11.697 2.50279 11.0978 1.90212C10.5028 1.30493 9.79644 0.830232 9.01872 0.504911C8.22074 0.169754 7.37343 0 6.5 0H6.47098C5.59175 0.00435268 4.74009 0.17846 3.93921 0.520871C3.16815 0.849529 2.4684 1.32507 1.87897 1.92098C1.28556 2.5202 0.819826 3.21663 0.497732 3.99286C0.164031 4.79665 -0.00427031 5.65123 8.2312e-05 6.53047C0.00500549 7.53807 0.243382 8.53082 0.696502 9.4308V11.6362C0.696502 11.8132 0.766818 11.9829 0.89198 12.1081C1.01714 12.2333 1.1869 12.3036 1.3639 12.3036H3.57069C4.47065 12.7567 5.46339 12.9951 6.47098 13H6.50145C7.37052 13 8.21348 12.8317 9.00711 12.5023C9.7809 12.1809 10.4846 11.7117 11.079 11.1211C11.6782 10.5277 12.1497 9.83415 12.4791 9.06083C12.8215 8.25993 12.9956 7.40826 12.9999 6.52902C13.0043 5.64542 12.8331 4.78795 12.495 3.98125ZM10.3027 10.3362C9.28568 11.3431 7.93637 11.8973 6.5 11.8973H6.47534C5.60046 11.893 4.73138 11.6753 3.96387 11.2662L3.842 11.2009H1.79917V9.15804L1.73388 9.03616C1.32473 8.26864 1.1071 7.39955 1.10275 6.52467C1.09694 5.07812 1.64973 3.72009 2.66389 2.69721C3.6766 1.67433 5.03026 1.10848 6.47679 1.10268H6.50145C7.22689 1.10268 7.93056 1.24341 8.59361 1.52199C9.2407 1.7933 9.82105 2.18359 10.3202 2.6827C10.8178 3.18036 11.2095 3.76216 11.4809 4.40926C11.7623 5.07958 11.9031 5.79051 11.9002 6.52467C11.8915 7.96975 11.3242 9.32344 10.3027 10.3362Z" fill="#6362E7"/>
</svg>
