<svg width="16" height="18" viewBox="0 0 16 18" fill="none" xmlns="http://www.w3.org/2000/svg">
<path d="M4.94587 2.40883H4.78516C4.87355 2.40883 4.94587 2.33651 4.94587 2.24812V2.40883H11.053V2.24812C11.053 2.33651 11.1253 2.40883 11.2137 2.40883H11.053V3.85526H12.4994V2.24812C12.4994 1.53896 11.9229 0.962402 11.2137 0.962402H4.78516C4.07601 0.962402 3.49944 1.53896 3.49944 2.24812V3.85526H4.94587V2.40883ZM15.0709 3.85526H0.928014C0.572433 3.85526 0.285156 4.14254 0.285156 4.49812V5.14097C0.285156 5.22937 0.357478 5.30169 0.445871 5.30169H1.65926L2.15547 15.8084C2.18761 16.4934 2.75413 17.0338 3.43917 17.0338H12.5597C13.2468 17.0338 13.8113 16.4954 13.8434 15.8084L14.3396 5.30169H15.553C15.6414 5.30169 15.7137 5.22937 15.7137 5.14097V4.49812C15.7137 4.14254 15.4265 3.85526 15.0709 3.85526ZM12.405 15.5874H3.59386L3.1077 5.30169H12.8912L12.405 15.5874Z" fill="#6362E7"/>
</svg>
