<svg width="36" height="28" viewBox="0 0 36 28" fill="none" xmlns="http://www.w3.org/2000/svg">
<path d="M34.7143 0H1.28571C0.574554 0 0 0.56875 0 1.27273V26.7273C0 27.4312 0.574554 28 1.28571 28H34.7143C35.4254 28 36 27.4312 36 26.7273V1.27273C36 0.56875 35.4254 0 34.7143 0ZM33.1071 25.1364H2.89286V23.5494L8.45759 17.0148L14.4884 24.0943L23.8701 13.0852L33.1071 23.9273V25.1364ZM33.1071 19.9739L24.1152 9.41818C23.9866 9.26705 23.7536 9.26705 23.625 9.41818L14.4884 20.1409L8.70268 13.3517C8.57411 13.2006 8.34107 13.2006 8.2125 13.3517L2.89286 19.596V2.86364H33.1071V19.9739ZM9.64286 11.7727C10.1072 11.7727 10.5669 11.6822 10.9959 11.5063C11.4249 11.3304 11.8147 11.0726 12.143 10.7476C12.4713 10.4226 12.7317 10.0368 12.9094 9.61212C13.0871 9.18748 13.1786 8.73235 13.1786 8.27273C13.1786 7.8131 13.0871 7.35798 12.9094 6.93334C12.7317 6.5087 12.4713 6.12286 12.143 5.79785C11.8147 5.47285 11.4249 5.21504 10.9959 5.03915C10.5669 4.86326 10.1072 4.77273 9.64286 4.77273C8.70513 4.77273 7.8058 5.14148 7.14273 5.79785C6.47965 6.45423 6.10714 7.34447 6.10714 8.27273C6.10714 9.20098 6.47965 10.0912 7.14273 10.7476C7.8058 11.404 8.70513 11.7727 9.64286 11.7727ZM9.64286 7.15909C10.2656 7.15909 10.7679 7.65625 10.7679 8.27273C10.7679 8.8892 10.2656 9.38636 9.64286 9.38636C9.02009 9.38636 8.51786 8.8892 8.51786 8.27273C8.51786 7.65625 9.02009 7.15909 9.64286 7.15909Z" fill="#999999"/>
</svg>
